<?xml version="1.0" standalone="no"?>
<!DOCTYPE svg PUBLIC "-//W3C//DTD SVG 20010904//EN"
 "http://www.w3.org/TR/2001/REC-SVG-20010904/DTD/svg10.dtd">
<svg version="1.0" xmlns="http://www.w3.org/2000/svg"
 width="212.000000pt" height="212.000000pt" viewBox="0 0 212.000000 212.000000"
 preserveAspectRatio="xMidYMid meet">
<metadata>
Created by potrace 1.11, written by Peter Selinger 2001-2013
</metadata>
<g transform="translate(0.000000,212.000000) scale(0.100000,-0.100000)"
fill="#000000" stroke="none">
<path d="M278 2103 c-14 -9 -31 -27 -37 -40 -16 -34 -15 -1976 0 -2006 6 -12
21 -30 33 -39 19 -16 77 -17 786 -17 714 0 766 1 786 17 12 10 26 27 33 39 15
30 16 1971 0 2006 -6 13 -23 31 -39 40 -26 15 -96 17 -782 17 -684 -1 -755 -2
-780 -17z"/>
</g>
</svg>
